<svg id="Layer_1" data-name="Layer 1" xmlns="http://www.w3.org/2000/svg" viewBox="0 0 190.782 47.419"><defs><style>.cls-1{fill:#fff;}</style></defs><path class="cls-1" d="M56.46,114.565l-9.414,13.008,7.93,13.828L45.914,143l-5.938-8.438-.312,8.829-8.125.312.625-29.922,9.1.508-.7,8.828,6.055-9.336Z" transform="translate(-31.539 -113.589)"/><path class="cls-1" d="M76.207,126.558a24.352,24.352,0,0,1-.293,3.74,20.775,20.775,0,0,1-.909,3.652,16.616,16.616,0,0,1-1.572,3.311,11.519,11.519,0,0,1-2.285,2.685,10.294,10.294,0,0,1-3.057,1.807,10.733,10.733,0,0,1-3.877.664q-.937,0-1.963-.088a17.581,17.581,0,0,1-2.031-.293,12.776,12.776,0,0,1-1.963-.566,7.385,7.385,0,0,1-1.738-.928l1.016-7.383a10.072,10.072,0,0,0,1.367.654c.508.2,1.028.381,1.562.538a12.99,12.99,0,0,0,1.6.361,9.692,9.692,0,0,0,1.523.127,5.434,5.434,0,0,0,1.963-.322,3.817,3.817,0,0,0,1.406-.928,4.674,4.674,0,0,0,.928-1.455,8.023,8.023,0,0,0,.508-1.9,11.109,11.109,0,0,1-2.461.958,10.466,10.466,0,0,1-2.617.332,9.571,9.571,0,0,1-3.125-.508,7.911,7.911,0,0,1-2.6-1.455,6.919,6.919,0,0,1-2.441-5.42,10.091,10.091,0,0,1,.81-4.082,9.63,9.63,0,0,1,2.217-3.184,10.086,10.086,0,0,1,3.33-2.07,11.43,11.43,0,0,1,4.151-.742,10.273,10.273,0,0,1,4.7,1,9.413,9.413,0,0,1,3.281,2.715,11.744,11.744,0,0,1,1.934,3.975A17.745,17.745,0,0,1,76.207,126.558Zm-8.086-2.852a2.113,2.113,0,0,0-.264-1.055,2.756,2.756,0,0,0-.674-.8,2.948,2.948,0,0,0-.937-.508,3.279,3.279,0,0,0-2.09-.01,2.957,2.957,0,0,0-.918.488,2.444,2.444,0,0,0-.655.782,2.143,2.143,0,0,0-.244,1.025,2.07,2.07,0,0,0,.264,1.035,2.747,2.747,0,0,0,.674.8,3.092,3.092,0,0,0,.937.517,3.108,3.108,0,0,0,2.09.01,3.113,3.113,0,0,0,.918-.5,2.477,2.477,0,0,0,.654-.771A2.092,2.092,0,0,0,68.121,123.706Z" transform="translate(-31.539 -113.589)"/><path class="cls-1" d="M105.66,132.144a11.027,11.027,0,0,1-.928,4.677,9.327,9.327,0,0,1-2.539,3.33,10.883,10.883,0,0,1-3.77,1.993,15.719,15.719,0,0,1-4.638.664,9.752,9.752,0,0,1-2.1-.254q-1.143-.254-2.314-.635t-2.256-.82q-1.085-.439-1.924-.83l.859-8.047a13.7,13.7,0,0,0,3.682,1.513,15.94,15.94,0,0,0,3.975.518q.37,0,.9-.029a4.228,4.228,0,0,0,1.006-.176,2.154,2.154,0,0,0,.81-.44,1.057,1.057,0,0,0,.332-.839.923.923,0,0,0-.234-.635,1.755,1.755,0,0,0-.605-.43,3.819,3.819,0,0,0-.84-.254q-.469-.087-.918-.127t-.84-.039h-.625a7.725,7.725,0,0,1-3.057-.586,6.929,6.929,0,0,1-2.363-1.631,7.386,7.386,0,0,1-1.533-2.48,8.668,8.668,0,0,1-.547-3.115,8.988,8.988,0,0,1,.928-4.131,9.626,9.626,0,0,1,2.48-3.106,11.264,11.264,0,0,1,3.565-1.963,12.853,12.853,0,0,1,4.16-.683q.956,0,1.972.068a19.431,19.431,0,0,1,2.022.244,19.187,19.187,0,0,1,1.963.45,11.669,11.669,0,0,1,1.816.683l-.742,7.93a23.99,23.99,0,0,0-2.783-.752,13.926,13.926,0,0,0-2.842-.3c-.169,0-.388,0-.654.01s-.547.026-.84.059a8.569,8.569,0,0,0-.889.146,3.708,3.708,0,0,0-.8.264,1.548,1.548,0,0,0-.566.439,1.009,1.009,0,0,0,.127,1.338,2.1,2.1,0,0,0,.781.41,5.481,5.481,0,0,0,1.055.2q.576.059,1.142.069c.378.006.729.006,1.055,0a5.7,5.7,0,0,1,.8.029,7.975,7.975,0,0,1,2.812.664,6.538,6.538,0,0,1,2.12,1.5,6.375,6.375,0,0,1,1.328,2.236A8.565,8.565,0,0,1,105.66,132.144Z" transform="translate(-31.539 -113.589)"/><path class="cls-1" d="M129.644,124.526a9.284,9.284,0,0,1-.566,3.36,8.326,8.326,0,0,1-1.553,2.568,9.063,9.063,0,0,1-2.315,1.856,14.837,14.837,0,0,1-2.841,1.23,19.022,19.022,0,0,1-3.135.7,25.272,25.272,0,0,1-3.184.244v8.321h-9.1q0-2.227.009-4.336t.02-4.19q.009-2.079.02-4.189t.029-4.356q.039-2.382.019-4.765t.1-4.8a36.174,36.174,0,0,1,5-1.113,35.134,35.134,0,0,1,5.156-.371,18.716,18.716,0,0,1,3.008.244,14.6,14.6,0,0,1,2.881.771,12.857,12.857,0,0,1,2.559,1.319,8.607,8.607,0,0,1,3.4,4.384A9.316,9.316,0,0,1,129.644,124.526Zm-8.672.664a2.567,2.567,0,0,0-.771-1.982,2.836,2.836,0,0,0-2-.713,5.6,5.6,0,0,0-.85.068c-.293.046-.57.1-.83.166l-.234,5.7a3.731,3.731,0,0,0,.527.039h.527a3.983,3.983,0,0,0,1.358-.235,3.629,3.629,0,0,0,1.162-.674,3.372,3.372,0,0,0,.81-1.035A2.905,2.905,0,0,0,120.972,125.19Z" transform="translate(-31.539 -113.589)"/><path class="cls-1" d="M154.9,127.573a14.182,14.182,0,0,1-.41,3.428,13.456,13.456,0,0,1-1.182,3.1,12.782,12.782,0,0,1-1.875,2.646,11.938,11.938,0,0,1-2.48,2.061,12.031,12.031,0,0,1-6.436,1.816,12.25,12.25,0,0,1-3.349-.449,12.657,12.657,0,0,1-2.979-1.26,11.954,11.954,0,0,1-2.51-1.953,12.165,12.165,0,0,1-1.914-2.539,13.086,13.086,0,0,1-1.23-3,12.561,12.561,0,0,1-.44-3.34,13.642,13.642,0,0,1,1.592-6.406,13.24,13.24,0,0,1,1.865-2.656,12.269,12.269,0,0,1,2.451-2.09,11.74,11.74,0,0,1,2.94-1.367,11.249,11.249,0,0,1,3.34-.489,14.559,14.559,0,0,1,5.166.879,10.949,10.949,0,0,1,6.543,6.455A14.047,14.047,0,0,1,154.9,127.573Zm-8.672.508a5.494,5.494,0,0,0-.244-1.631,4.471,4.471,0,0,0-.713-1.406,3.654,3.654,0,0,0-1.162-1,3.251,3.251,0,0,0-1.592-.381,3.887,3.887,0,0,0-1.64.332,3.764,3.764,0,0,0-1.241.908,3.993,3.993,0,0,0-.791,1.348,4.856,4.856,0,0,0-.273,1.631,5.952,5.952,0,0,0,.234,1.64,4.885,4.885,0,0,0,.7,1.485,3.736,3.736,0,0,0,1.162,1.074,3.109,3.109,0,0,0,1.612.41,3.676,3.676,0,0,0,1.65-.361,3.725,3.725,0,0,0,1.24-.977,4.474,4.474,0,0,0,.782-1.416A5.1,5.1,0,0,0,146.226,128.081Z" transform="translate(-31.539 -113.589)"/><path class="cls-1" d="M179.156,123.706a13.311,13.311,0,0,1-.264,2.764,8.332,8.332,0,0,1-.83,2.275,8.135,8.135,0,0,1-1.465,1.914,13.043,13.043,0,0,1-2.168,1.68l4.649,8.281-8.789,1.719-3.008-8.32-2.422.078-.352,8.125h-8.4q.1-4.454.185-8.868t.206-8.867q.038-2.245.078-4.453t.156-4.453a25.052,25.052,0,0,1,5.361-1.357q1.338-.186,2.715-.254t2.822-.069a15.076,15.076,0,0,1,4.307.616,11.189,11.189,0,0,1,3.682,1.845,9.269,9.269,0,0,1,2.568,3.067A9.057,9.057,0,0,1,179.156,123.706Zm-8.75.625a4.789,4.789,0,0,0-.225-1.5,3.342,3.342,0,0,0-.664-1.181,3.046,3.046,0,0,0-1.094-.782,3.848,3.848,0,0,0-1.533-.283,5.925,5.925,0,0,0-.762.049,5.335,5.335,0,0,0-.722.146l-.313,7.266h.469a7.069,7.069,0,0,0,1.709-.215,5.081,5.081,0,0,0,1.562-.664,3.686,3.686,0,0,0,1.133-1.152A3.107,3.107,0,0,0,170.406,124.331Z" transform="translate(-31.539 -113.589)"/><path class="cls-1" d="M201.187,115l-.2,8.281-5.821.235-.7,18.125-8.242.429-.742-18.125-5.82.313.234-9.219Z" transform="translate(-31.539 -113.589)"/><path class="cls-1" d="M222.32,132.534a10.649,10.649,0,0,1-.927,4.619,8.824,8.824,0,0,1-2.539,3.2,10.66,10.66,0,0,1-3.77,1.856,17.386,17.386,0,0,1-4.639.6,9.759,9.759,0,0,1-2.1-.254q-1.143-.254-2.314-.635t-2.256-.82q-1.085-.439-1.924-.83l.859-7.657a13.73,13.73,0,0,0,3.682,1.514,15.986,15.986,0,0,0,3.975.518c.246,0,.547-.01.9-.03a4.187,4.187,0,0,0,1-.176,2.172,2.172,0,0,0,.811-.439,1.061,1.061,0,0,0,.332-.84.925.925,0,0,0-.234-.635,1.79,1.79,0,0,0-.606-.429,3.7,3.7,0,0,0-.84-.254,9.267,9.267,0,0,0-.918-.127q-.45-.039-.84-.039h-.625a8.477,8.477,0,0,1-3.057-.528,6.786,6.786,0,0,1-2.363-1.494,6.671,6.671,0,0,1-1.533-2.343,8.207,8.207,0,0,1-.547-3.057,8.988,8.988,0,0,1,.928-4.131,9.622,9.622,0,0,1,2.48-3.105,11.225,11.225,0,0,1,3.565-1.963,12.827,12.827,0,0,1,4.16-.684q.956,0,1.973.068a19.4,19.4,0,0,1,3.984.694,11.719,11.719,0,0,1,1.817.683l-.742,7.93a24.116,24.116,0,0,0-2.784-.752,14,14,0,0,0-2.841-.3c-.17,0-.389,0-.655.01s-.547.027-.84.059a8.873,8.873,0,0,0-.888.146,3.782,3.782,0,0,0-.8.264,1.54,1.54,0,0,0-.566.439.924.924,0,0,0-.2.645.833.833,0,0,0,.323.664,1.945,1.945,0,0,0,.781.342,4.788,4.788,0,0,0,1.055.107q.573,0,1.142-.029c.377-.02.729-.039,1.055-.059a6.891,6.891,0,0,1,.8-.009,7.958,7.958,0,0,1,2.812.664,6.544,6.544,0,0,1,2.119,1.5,6.381,6.381,0,0,1,1.328,2.236A8.563,8.563,0,0,1,222.32,132.534Z" transform="translate(-31.539 -113.589)"/><path class="cls-1" d="M149.283,159.776a5.345,5.345,0,0,1-1.64-3.568q-.048-.463-.048-1.392a12.893,12.893,0,0,1,.048-1.344,5.519,5.519,0,0,1,1.664-3.576,5.359,5.359,0,0,1,3.76-1.272,6.107,6.107,0,0,1,4.136,1.24,4.867,4.867,0,0,1,1.527,3.608c.022.448.033.79.033,1.024q0,.785-.033,1.1-.143,2.337-2.063,2.336a1.767,1.767,0,0,1-1.081-.3,2.359,2.359,0,0,1-.615-.64,2.171,2.171,0,0,1-2,1.1,2.352,2.352,0,0,1-1.92-.856,4.463,4.463,0,0,1,.008-4.824,2.348,2.348,0,0,1,1.912-.864,1.956,1.956,0,0,1,.992.224,2.4,2.4,0,0,1,.656.56v-.3a.33.33,0,0,1,.352-.352h.272a.33.33,0,0,1,.352.352v3.488a1.774,1.774,0,0,0,.3,1.1.933.933,0,0,0,.776.384.849.849,0,0,0,.848-.472,2.555,2.555,0,0,0,.24-1.032q.032-.319.032-1.024,0-.607-.032-.928a4.279,4.279,0,0,0-1.256-2.992,4.99,4.99,0,0,0-3.432-1.008,4.4,4.4,0,0,0-3.08,1.04,4.547,4.547,0,0,0-1.368,2.96,11.543,11.543,0,0,0-.048,1.264c0,.566.015,1,.048,1.312a4.086,4.086,0,0,0,4.448,3.952,7.064,7.064,0,0,0,1.8-.192,3.865,3.865,0,0,0,.96-.352c.165-.106.429-.3.792-.576.01-.01.05-.045.12-.1a.4.4,0,0,1,.263-.088h.416a.328.328,0,0,1,.337.336.386.386,0,0,1-.08.224,5.582,5.582,0,0,1-1.824,1.224,7.192,7.192,0,0,1-2.784.456A5.483,5.483,0,0,1,149.283,159.776Zm4.96-3.224a3.311,3.311,0,0,0,.376-1.72,3.357,3.357,0,0,0-.376-1.728,1.586,1.586,0,0,0-2.528.008,3.243,3.243,0,0,0-.392,1.72,3.189,3.189,0,0,0,.4,1.672,1.351,1.351,0,0,0,1.248.664A1.371,1.371,0,0,0,154.243,156.552Z" transform="translate(-31.539 -113.589)"/><path class="cls-1" d="M162.25,158.488a3.387,3.387,0,0,1-.5-1.96v-4.72h-1.248a.33.33,0,0,1-.352-.352v-.224a.33.33,0,0,1,.352-.352h1.248v-2.688a.332.332,0,0,1,.352-.352h.272a.33.33,0,0,1,.352.352v2.688h1.984a.349.349,0,0,1,.257.1.345.345,0,0,1,.095.256v.224a.345.345,0,0,1-.095.256.349.349,0,0,1-.257.1H162.73v4.656a2.506,2.506,0,0,0,.3,1.352,1.085,1.085,0,0,0,.984.456h.865a.332.332,0,0,1,.352.352v.224a.332.332,0,0,1-.352.352h-.944A1.9,1.9,0,0,1,162.25,158.488Z" transform="translate(-31.539 -113.589)"/><path class="cls-1" d="M166.986,159.1a.345.345,0,0,1-.1-.256V148.192a.33.33,0,0,1,.352-.352h.272a.33.33,0,0,1,.352.352v3.792a3.319,3.319,0,0,1,1.1-.944,3.453,3.453,0,0,1,1.592-.32,2.993,2.993,0,0,1,2.416,1,3.859,3.859,0,0,1,.848,2.584v4.544a.33.33,0,0,1-.352.352h-.272a.33.33,0,0,1-.352-.352v-4.464a2.957,2.957,0,0,0-.632-2.016,2.286,2.286,0,0,0-1.816-.72,2.414,2.414,0,0,0-1.84.728,2.806,2.806,0,0,0-.688,2.008v4.464a.33.33,0,0,1-.352.352h-.272A.345.345,0,0,1,166.986,159.1Z" transform="translate(-31.539 -113.589)"/><path class="cls-1" d="M176.97,158.36a4.292,4.292,0,0,1-1.056-2.68l-.016-.64.016-.64a4.333,4.333,0,0,1,1.048-2.672,3.163,3.163,0,0,1,2.456-1.008,3.225,3.225,0,0,1,2.6,1.1,4.529,4.529,0,0,1,.936,3.024v.24a.332.332,0,0,1-.1.256.373.373,0,0,1-.264.1h-5.7v.16a3.547,3.547,0,0,0,.344,1.4,2.642,2.642,0,0,0,.872,1.04,2.225,2.225,0,0,0,1.312.392,2.666,2.666,0,0,0,1.432-.344,2.61,2.61,0,0,0,.792-.7,1.153,1.153,0,0,1,.216-.24.512.512,0,0,1,.264-.048h.256a.364.364,0,0,1,.24.08.259.259,0,0,1,.1.208,1.331,1.331,0,0,1-.424.808,3.524,3.524,0,0,1-1.176.816,4.022,4.022,0,0,1-1.7.344A3.182,3.182,0,0,1,176.97,158.36Zm5.008-3.816v-.064a2.986,2.986,0,0,0-.7-2.032,2.347,2.347,0,0,0-1.864-.8,2.3,2.3,0,0,0-1.848.8,3.032,3.032,0,0,0-.68,2.032v.064Z" transform="translate(-31.539 -113.589)"/><path class="cls-1" d="M189.5,159.1a.345.345,0,0,1-.1-.256v-10.48a.376.376,0,0,1,.1-.264.332.332,0,0,1,.256-.1h4.176a3.254,3.254,0,0,1,2.4.816,2.778,2.778,0,0,1,.816,2.048,2.691,2.691,0,0,1-.416,1.552,2.49,2.49,0,0,1-.992.88,3.052,3.052,0,0,1,1.16,1.072,2.972,2.972,0,0,1,.472,1.664,3.243,3.243,0,0,1-.392,1.56,2.971,2.971,0,0,1-1.144,1.168,3.48,3.48,0,0,1-1.792.44h-4.288A.345.345,0,0,1,189.5,159.1Zm4.224-6.24a2.723,2.723,0,0,0,1.8-.52,1.828,1.828,0,0,0,.616-1.48,1.694,1.694,0,0,0-.616-1.424,2.886,2.886,0,0,0-1.8-.48H190.41v3.9Zm.16,5.376a2.557,2.557,0,0,0,1.824-.616,2.269,2.269,0,0,0,0-3.192,2.581,2.581,0,0,0-1.824-.608H190.41v4.416Z" transform="translate(-31.539 -113.589)"/><path class="cls-1" d="M200.458,159.04a2.735,2.735,0,0,1-1.048-.864,2,2,0,0,1-.392-1.2,2.1,2.1,0,0,1,.856-1.728,4.668,4.668,0,0,1,2.312-.864l2.528-.352v-.56a1.708,1.708,0,0,0-.536-1.352,2.432,2.432,0,0,0-1.64-.472,2.517,2.517,0,0,0-1.336.32,1.442,1.442,0,0,0-.664.768.581.581,0,0,1-.152.264.356.356,0,0,1-.232.072h-.224a.355.355,0,0,1-.352-.352,1.543,1.543,0,0,1,.319-.824,2.665,2.665,0,0,1,.993-.824,3.526,3.526,0,0,1,1.648-.352,3.109,3.109,0,0,1,2.432.816,2.9,2.9,0,0,1,.72,1.984v5.328a.33.33,0,0,1-.352.352h-.272a.33.33,0,0,1-.352-.352V158.1a2.818,2.818,0,0,1-1.032.9,3.791,3.791,0,0,1-1.8.368A3.208,3.208,0,0,1,200.458,159.04Zm3.5-1.376a3.028,3.028,0,0,0,.752-2.208v-.544l-2.064.288a4.962,4.962,0,0,0-1.984.608,1.282,1.282,0,0,0-.056,2.224,2.775,2.775,0,0,0,3.352-.368Z" transform="translate(-31.539 -113.589)"/><path class="cls-1" d="M208.314,159.1a.345.345,0,0,1-.1-.256v-7.6a.376.376,0,0,1,.1-.264.332.332,0,0,1,.256-.1h.256a.356.356,0,0,1,.368.368v.736a2.224,2.224,0,0,1,2.176-1.1h.592a.33.33,0,0,1,.352.352v.224a.33.33,0,0,1-.352.352h-.688a1.933,1.933,0,0,0-2.08,2.08v4.96a.332.332,0,0,1-.1.256.373.373,0,0,1-.264.1h-.256A.345.345,0,0,1,208.314,159.1Z" transform="translate(-31.539 -113.589)"/><path class="cls-1" d="M213.882,159.1a.345.345,0,0,1-.1-.256v-7.616a.33.33,0,0,1,.352-.352h.272a.33.33,0,0,1,.352.352v.752a3.319,3.319,0,0,1,1.1-.944,3.45,3.45,0,0,1,1.592-.32,3,3,0,0,1,2.416,1,3.859,3.859,0,0,1,.848,2.584v4.544a.33.33,0,0,1-.352.352h-.272a.33.33,0,0,1-.352-.352v-4.464a2.957,2.957,0,0,0-.632-2.016,2.289,2.289,0,0,0-1.816-.72,2.412,2.412,0,0,0-1.84.728,2.806,2.806,0,0,0-.688,2.008v4.464a.33.33,0,0,1-.352.352h-.272A.345.345,0,0,1,213.882,159.1Z" transform="translate(-31.539 -113.589)"/></svg>